<?xml version="1.0" encoding="utf-8"?>
<!-- Generator: Adobe Illustrator 27.8.1, SVG Export Plug-In . SVG Version: 6.00 Build 0)  -->
<svg version="1.1" id="Layer_1" xmlns="http://www.w3.org/2000/svg" xmlns:xlink="http://www.w3.org/1999/xlink" x="0px" y="0px"
	 viewBox="0 0 16 16" style="enable-background:new 0 0 16 16;" xml:space="preserve">
<path d="M15.9,8.4c0.1-0.2,0.1-0.5,0-0.8c-0.1-0.1-0.1-0.2-0.2-0.3l-7-7c-0.4-0.4-1-0.4-1.4,0s-0.4,1,0,1.4L12.6,7H1
	C0.4,7,0,7.4,0,8s0.4,1,1,1h11.6l-5.3,5.3c-0.4,0.4-0.4,1,0,1.4C7.5,15.9,7.7,16,8,16s0.5-0.1,0.7-0.3l7-7
	C15.8,8.6,15.9,8.5,15.9,8.4z"/>
</svg>
