<svg width="12" height="10" viewBox="0 0 12 10" fill="none" xmlns="http://www.w3.org/2000/svg">
<path fill-rule="evenodd" clip-rule="evenodd" d="M6.29289 0.292893C6.68342 -0.0976311 7.31658 -0.0976311 7.70711 0.292893L11.7071 4.29289C12.0976 4.68342 12.0976 5.31658 11.7071 5.70711L7.70711 9.70711C7.31658 10.0976 6.68342 10.0976 6.29289 9.70711C5.90237 9.31658 5.90237 8.68342 6.29289 8.29289L9.58579 5L6.29289 1.70711C5.90237 1.31658 5.90237 0.683417 6.29289 0.292893Z" fill="#3C433C"/>
<path fill-rule="evenodd" clip-rule="evenodd" d="M0 5C0 4.44772 0.447715 4 1 4H11C11.5523 4 12 4.44772 12 5C12 5.55228 11.5523 6 11 6H1C0.447715 6 0 5.55228 0 5Z" fill="#3C433C"/>
</svg>
