<?xml version="1.0" standalone="no"?>
<!DOCTYPE svg PUBLIC "-//W3C//DTD SVG 20010904//EN"
 "http://www.w3.org/TR/2001/REC-SVG-20010904/DTD/svg10.dtd">
<svg version="1.0" xmlns="http://www.w3.org/2000/svg"
 width="700.000000pt" height="700.000000pt" viewBox="0 0 700.000000 700.000000"
 preserveAspectRatio="xMidYMid meet">
<metadata>
Created by potrace 1.14, written by Peter Selinger 2001-2017
</metadata>
<g transform="translate(0.000000,700.000000) scale(0.100000,-0.100000)"
fill="#000000" stroke="none">
<path d="M3445 6419 c-1007 -76 -1813 -701 -1997 -1549 -19 -90 -22 -134 -22
-315 0 -179 3 -225 22 -311 45 -208 128 -403 244 -577 l66 -97 -30 -38 c-63
-77 -172 -250 -219 -348 -369 -765 -137 -1642 575 -2168 509 -377 1176 -521
1833 -395 601 115 1137 466 1448 947 63 98 157 296 194 411 60 184 76 293 76
526 0 179 -3 227 -23 323 -46 229 -140 450 -274 648 l-75 111 24 29 c50 61
166 240 202 313 264 526 227 1140 -98 1623 -188 279 -428 483 -756 643 -283
138 -537 203 -870 225 -166 11 -164 11 -320 -1z m325 -279 c397 -31 744 -155
1030 -369 616 -461 761 -1243 344 -1866 -29 -44 -64 -93 -77 -109 l-23 -29
-85 64 c-280 214 -629 403 -950 515 -116 40 -144 38 -200 -16 -35 -33 -39 -42
-39 -87 0 -60 27 -94 93 -116 385 -133 658 -272 922 -470 177 -132 323 -311
426 -522 100 -205 137 -349 146 -575 26 -617 -357 -1194 -994 -1497 -417 -198
-895 -254 -1355 -157 -486 102 -921 386 -1160 759 -218 338 -285 719 -193
1101 44 184 137 383 251 538 l65 88 32 -25 c312 -238 635 -416 973 -538 106
-38 119 -41 154 -30 21 6 52 27 69 46 40 47 44 118 8 157 -20 21 -120 68 -145
68 -19 0 -248 93 -352 143 -227 108 -490 280 -609 398 -183 181 -301 386 -368
637 -24 89 -26 114 -27 302 -1 194 1 211 27 313 31 120 83 254 129 337 269
477 773 810 1388 915 181 31 340 39 520 25z"/>
</g>
</svg>
